<?xml version="1.0" encoding="UTF-8"?>
<!DOCTYPE svg PUBLIC "-//W3C//DTD SVG 1.1//EN" "http://www.w3.org/Graphics/SVG/1.1/DTD/svg11.dtd">
<svg xmlns="http://www.w3.org/2000/svg" version="1.1" width="200px" height="166px" style="shape-rendering:geometricPrecision; text-rendering:geometricPrecision; image-rendering:optimizeQuality; fill-rule:evenodd; clip-rule:evenodd" xmlns:xlink="http://www.w3.org/1999/xlink">
<g><path style="opacity:0.02" fill="#2b2b2b" d="M 87.5,44.5 C 86.3285,45.3446 84.9952,46.0113 83.5,46.5C 84.1834,44.8235 85.5168,44.1568 87.5,44.5 Z"/></g>
<g><path style="opacity:0.931" fill="#ffffff" d="M 91.5,44.5 C 92.1495,46.4352 92.4828,48.4352 92.5,50.5C 91.8505,52.4771 91.8505,54.3105 92.5,56C 90.9676,58.6208 89.9676,61.4541 89.5,64.5C 87.6921,65.9179 87.0254,67.9179 87.5,70.5C 87.2797,74.9264 84.9464,76.9264 80.5,76.5C 80.8541,74.4588 80.8541,72.6255 80.5,71C 82.6879,65.2208 84.6879,59.3875 86.5,53.5C 87.0431,53.44 87.3764,53.1067 87.5,52.5C 86.7435,51.2267 86.0768,51.2267 85.5,52.5C 81.8223,57.2056 78.1556,61.8723 74.5,66.5C 73.3263,67.5137 72.6596,68.847 72.5,70.5C 69.2198,78.7316 66.8864,87.2316 65.5,96C 68.5885,111.977 76.0885,113.811 88,101.5C 88.941,99.2726 90.1077,97.2726 91.5,95.5C 92.4013,94.7095 93.0679,93.7095 93.5,92.5C 97.5535,77.9338 100.22,63.6004 101.5,49.5C 102.528,45.7279 105.028,43.7279 109,43.5C 116.147,44.1898 122.147,46.5232 127,50.5C 131.384,59.2075 130.217,67.2075 123.5,74.5C 119.711,75.5961 119.711,76.2627 123.5,76.5C 125.674,76.7497 127.341,77.7497 128.5,79.5C 128.821,81.0481 129.821,81.7148 131.5,81.5C 136.821,88.1392 136.821,94.8059 131.5,101.5C 129.896,102.287 129.229,103.62 129.5,105.5C 127.737,106.822 126.07,108.322 124.5,110C 119.407,111.042 114.574,111.875 110,112.5C 106.683,111.1 103.85,109.1 101.5,106.5C 107.128,105.505 112.794,105.171 118.5,105.5C 120.027,105.573 121.027,104.906 121.5,103.5C 123.887,101.742 125.554,99.4087 126.5,96.5C 128.163,94.5615 128.829,92.2282 128.5,89.5C 128.5,88.8333 128.5,88.1667 128.5,87.5C 128.167,86.5 127.5,85.8333 126.5,85.5C 122.3,81.984 117.466,79.6507 112,78.5C 110.699,77.9019 109.865,76.9019 109.5,75.5C 112.626,73.0979 115.96,70.9312 119.5,69C 123.416,63.3653 123.416,57.8653 119.5,52.5C 118.07,51.4625 116.403,50.7959 114.5,50.5C 112.167,50.5 109.833,50.5 107.5,50.5C 108.069,53.9819 108.069,57.3152 107.5,60.5C 106.262,62.2143 105.595,64.2143 105.5,66.5C 106.048,67.6885 106.381,68.8552 106.5,70C 104.422,77.4704 102.255,84.9704 100,92.5C 99.3378,93.9839 98.5045,95.3172 97.5,96.5C 95.461,97.911 94.461,99.911 94.5,102.5C 92.8804,107.118 89.8804,110.451 85.5,112.5C 82.8478,112.41 80.5145,113.076 78.5,114.5C 71.9718,114.697 66.1385,112.364 61,107.5C 60.3562,103.779 59.5228,100.113 58.5,96.5C 59.3194,93.6219 59.6527,90.6219 59.5,87.5C 61.4159,83.8371 62.4159,79.8371 62.5,75.5C 65.3101,69.5375 68.3101,63.8708 71.5,58.5C 73.2624,57.7377 74.2624,56.4044 74.5,54.5C 76.2329,50.4351 79.2329,47.7684 83.5,46.5C 84.9952,46.0113 86.3285,45.3446 87.5,44.5C 88.8333,43.1667 90.1667,43.1667 91.5,44.5 Z"/></g>
<g><path style="opacity:0.424" fill="#464646" d="M 91.5,44.5 C 92.9468,45.1342 93.6134,46.3009 93.5,48C 93.472,49.0698 93.1386,49.9032 92.5,50.5C 92.4828,48.4352 92.1495,46.4352 91.5,44.5 Z"/></g>
<g><path style="opacity:0.004" fill="#252525" d="M 85.5,52.5 C 86.0768,51.2267 86.7435,51.2267 87.5,52.5C 87.3764,53.1067 87.0431,53.44 86.5,53.5C 86.5,52.8333 86.1667,52.5 85.5,52.5 Z"/></g>
<g><path style="opacity:0.047" fill="#484848" d="M 114.5,50.5 C 116.403,50.7959 118.07,51.4625 119.5,52.5C 117.302,52.8799 115.635,52.2132 114.5,50.5 Z"/></g>
<g><path style="opacity:0.259" fill="#5d5d5d" d="M 74.5,54.5 C 74.2624,56.4044 73.2624,57.7377 71.5,58.5C 71.7376,56.5956 72.7376,55.2623 74.5,54.5 Z"/></g>
<g><path style="opacity:0.051" fill="#3b3b3b" d="M 107.5,60.5 C 107.741,62.8984 107.074,64.8984 105.5,66.5C 105.595,64.2143 106.262,62.2143 107.5,60.5 Z"/></g>
<g><path style="opacity:0.455" fill="#585858" d="M 89.5,64.5 C 88.9518,66.6264 88.2852,68.6264 87.5,70.5C 87.0254,67.9179 87.6921,65.9179 89.5,64.5 Z"/></g>
<g><path style="opacity:0.047" fill="#3b3b3b" d="M 74.5,66.5 C 74.7709,68.3797 74.1042,69.713 72.5,70.5C 72.6596,68.847 73.3263,67.5137 74.5,66.5 Z"/></g>
<g><path style="opacity:0.039" fill="#383838" d="M 123.5,74.5 C 123.5,75.1667 123.5,75.8333 123.5,76.5C 119.711,76.2627 119.711,75.5961 123.5,74.5 Z"/></g>
<g><path style="opacity:0.365" fill="#454545" d="M 128.5,79.5 C 129.71,79.9321 130.71,80.5987 131.5,81.5C 129.821,81.7148 128.821,81.0481 128.5,79.5 Z"/></g>
<g><path style="opacity:0.525" fill="#848484" d="M 62.5,75.5 C 62.4159,79.8371 61.4159,83.8371 59.5,87.5C 59.8984,83.2393 60.8984,79.2393 62.5,75.5 Z"/></g>
<g><path style="opacity:0.047" fill="#383838" d="M 126.5,85.5 C 127.5,85.8333 128.167,86.5 128.5,87.5C 127.167,87.5 126.5,86.8333 126.5,85.5 Z"/></g>
<g><path style="opacity:0.035" fill="#404040" d="M 93.5,92.5 C 93.0679,93.7095 92.4013,94.7095 91.5,95.5C 91.2852,93.8212 91.9519,92.8212 93.5,92.5 Z"/></g>
<g><path style="opacity:0.431" fill="#646464" d="M 128.5,89.5 C 128.829,92.2282 128.163,94.5615 126.5,96.5C 126.721,93.9327 127.388,91.5994 128.5,89.5 Z"/></g>
<g><path style="opacity:0.263" fill="#838383" d="M 97.5,96.5 C 97.0075,98.8185 96.0075,100.819 94.5,102.5C 94.461,99.911 95.461,97.911 97.5,96.5 Z"/></g>
<g><path style="opacity:0.939" fill="#ffffff" d="M 136.5,100.5 C 138.484,100.383 140.15,101.05 141.5,102.5C 141.92,104.353 142.253,106.187 142.5,108C 141.218,110.954 139.052,112.787 136,113.5C 133.68,113.2 132.513,111.867 132.5,109.5C 133.684,106.419 135.018,103.419 136.5,100.5 Z"/></g>
<g><path style="opacity:0.153" fill="#4c4c4c" d="M 131.5,101.5 C 131.34,103.153 130.674,104.486 129.5,105.5C 129.229,103.62 129.896,102.287 131.5,101.5 Z"/></g>
<g><path style="opacity:0.11" fill="#4e4e4e" d="M 121.5,103.5 C 121.027,104.906 120.027,105.573 118.5,105.5C 118.973,104.094 119.973,103.427 121.5,103.5 Z"/></g>
<g><path style="opacity:0.039" fill="#2a2a2a" d="M 85.5,112.5 C 83.4855,113.924 81.1522,114.59 78.5,114.5C 80.5145,113.076 82.8478,112.41 85.5,112.5 Z"/></g>
</svg>
