<?xml version="1.0" encoding="UTF-8"?>
<!DOCTYPE svg PUBLIC "-//W3C//DTD SVG 1.1//EN" "http://www.w3.org/Graphics/SVG/1.1/DTD/svg11.dtd">
<svg xmlns="http://www.w3.org/2000/svg" version="1.1" width="440px" height="365px" style="shape-rendering:geometricPrecision; text-rendering:geometricPrecision; image-rendering:optimizeQuality; fill-rule:evenodd; clip-rule:evenodd" xmlns:xlink="http://www.w3.org/1999/xlink">
<g><path style="opacity:0.955" fill="#ffffff" d="M 266.5,103.5 C 269.275,104.291 271.942,105.458 274.5,107C 274.043,107.414 273.709,107.914 273.5,108.5C 275.524,110.358 277.691,112.025 280,113.5C 280.49,114.793 280.657,116.127 280.5,117.5C 281.552,117.351 282.552,117.517 283.5,118C 283.815,119.902 283.815,121.902 283.5,124C 285.658,125.312 285.991,126.978 284.5,129C 285.167,129.333 285.833,129.667 286.5,130C 283.382,134.117 282.716,138.45 284.5,143C 282.193,145.373 280.527,148.206 279.5,151.5C 279.709,152.086 280.043,152.586 280.5,153C 277.238,155.592 274.738,158.759 273,162.5C 270.963,164.436 268.797,166.102 266.5,167.5C 267.651,168.731 268.817,168.731 270,167.5C 272.255,168.042 274.088,169.209 275.5,171C 276.793,171.49 278.127,171.657 279.5,171.5C 279.5,172.833 279.5,174.167 279.5,175.5C 282.292,175.452 284.125,176.785 285,179.5C 286.507,178.465 288.007,178.632 289.5,180C 289.167,180.333 288.833,180.667 288.5,181C 289.793,181.49 291.127,181.657 292.5,181.5C 293.369,186.164 294.536,191.164 296,196.5C 296.273,198.329 297.107,199.829 298.5,201C 295.833,202 295.833,203 298.5,204C 296.243,206.115 295.243,208.448 295.5,211C 295.241,212.261 294.574,213.261 293.5,214C 295.878,214.974 295.544,215.641 292.5,216C 293.311,218.291 292.477,220.125 290,221.5C 288.491,224.428 287.158,227.428 286,230.5C 283.457,232.411 280.957,234.411 278.5,236.5C 277.359,237.425 277.359,238.259 278.5,239C 274.886,239.487 271.886,240.987 269.5,243.5C 267.541,243.125 265.707,242.459 264,241.5C 263.51,242.793 263.343,244.127 263.5,245.5C 258.57,245.197 253.737,245.531 249,246.5C 248.333,245.833 247.667,245.167 247,244.5C 245.687,245.573 244.187,246.24 242.5,246.5C 239.552,244.245 236.219,242.578 232.5,241.5C 229.552,239.588 227.219,237.088 225.5,234C 225.833,233.5 226.167,233 226.5,232.5C 227.425,233.641 228.259,233.641 229,232.5C 229.333,233.167 229.667,233.833 230,234.5C 231.923,233.684 233.923,233.017 236,232.5C 239.055,235.053 242.055,235.053 245,232.5C 245.934,235.965 247.434,236.298 249.5,233.5C 253.209,234.335 257.042,234.668 261,234.5C 261.635,230.898 262.968,230.232 265,232.5C 266.605,230.175 268.272,227.842 270,225.5C 270.414,225.957 270.914,226.291 271.5,226.5C 276.339,222.166 279.672,216.832 281.5,210.5C 280.745,207.781 281.411,205.281 283.5,203C 282.283,200.989 282.616,198.989 284.5,197C 282.243,190.398 278.076,185.231 272,181.5C 271.667,181.833 271.333,182.167 271,182.5C 269.89,180.963 268.39,180.297 266.5,180.5C 266.5,179.5 266.5,178.5 266.5,177.5C 263.348,178.041 260.848,177.041 259,174.5C 257.413,175.727 256.079,175.394 255,173.5C 254.439,174.022 253.772,174.355 253,174.5C 250.708,173.069 248.208,172.236 245.5,172C 244.692,169.912 243.692,167.912 242.5,166C 250.606,160.746 258.44,155.913 266,151.5C 268.589,148.031 270.422,143.697 271.5,138.5C 270.955,133.35 270.455,128.017 270,122.5C 267.037,119.373 263.871,116.373 260.5,113.5C 258.055,114.965 256.055,114.465 254.5,112C 248.726,110.36 243.059,109.694 237.5,110C 237.833,110.333 238.167,110.667 238.5,111C 237.5,111.333 236.5,111.667 235.5,112C 236.43,113.395 236.43,114.895 235.5,116.5C 237.865,119.764 237.865,123.098 235.5,126.5C 236.814,128.452 237.48,130.285 237.5,132C 235.996,133.337 234.996,135.004 234.5,137C 236.013,139.454 235.346,141.121 232.5,142C 232.985,144.68 233.318,147.347 233.5,150C 230.833,150.667 230.833,151.333 233.5,152C 232.167,152.667 232.167,153.333 233.5,154C 232.687,155.314 231.687,156.481 230.5,157.5C 229.989,160.4 229.989,163.567 230.5,167C 228.57,170.194 226.903,173.527 225.5,177C 227.002,179.006 226.669,180.672 224.5,182C 225.167,183.333 225.833,184.667 226.5,186C 225.453,188.418 223.786,190.918 221.5,193.5C 221.977,194.478 222.643,195.311 223.5,196C 220.041,196.916 219.041,198.916 220.5,202C 217.021,203.129 215.854,205.296 217,208.5C 213.538,208.983 213.038,210.15 215.5,212C 213.992,213.507 212.659,215.173 211.5,217C 214.378,219.694 213.712,221.194 209.5,221.5C 210.571,223.325 209.904,224.492 207.5,225C 207.833,225.333 208.167,225.667 208.5,226C 207.033,227.098 206.199,228.598 206,230.5C 203.579,232.582 201.412,234.915 199.5,237.5C 199.709,238.086 200.043,238.586 200.5,239C 197.167,240.667 193.833,242.333 190.5,244C 189.939,245.676 188.939,247.009 187.5,248C 184.206,248.346 181.039,249.179 178,250.5C 174.56,248.636 172.393,249.636 171.5,253.5C 167.289,252.098 162.955,251.264 158.5,251C 155.564,248.744 152.23,247.411 148.5,247C 143.406,243.742 139.073,239.575 135.5,234.5C 137.305,232.14 136.805,230.473 134,229.5C 133.721,225.541 132.887,221.708 131.5,218C 132.878,215.902 132.544,214.068 130.5,212.5C 131.178,209.414 131.512,206.414 131.5,203.5C 131.06,201.235 130.394,199.068 129.5,197C 131.107,195.595 132.44,193.928 133.5,192C 134.254,187.491 134.254,183.157 133.5,179C 137.075,177.2 138.075,174.533 136.5,171C 138.525,169.806 138.859,168.306 137.5,166.5C 138.777,164.088 140.443,161.421 142.5,158.5C 142.291,157.914 141.957,157.414 141.5,157C 143.434,155.647 145.267,154.147 147,152.5C 148.047,149.119 149.547,145.953 151.5,143C 150.689,140.709 151.523,138.875 154,137.5C 153.369,132.976 155.203,130.143 159.5,129C 159.167,128.667 158.833,128.333 158.5,128C 161.177,125.655 163.51,122.988 165.5,120C 165.167,119.667 164.833,119.333 164.5,119C 165.817,117.341 167.483,116.174 169.5,115.5C 170.357,114.264 171.023,112.931 171.5,111.5C 172.325,110.614 173.325,110.281 174.5,110.5C 174.5,109.5 174.5,108.5 174.5,107.5C 179.926,106.62 184.259,103.953 187.5,99.5C 191.339,100.903 194.505,99.9033 197,96.5C 199.979,98.6445 202.812,100.978 205.5,103.5C 204.44,109.218 202.774,115.051 200.5,121C 201.328,121.915 202.328,122.581 203.5,123C 200.79,126.739 198.79,130.739 197.5,135C 196.636,136.848 196.636,139.014 197.5,141.5C 196.675,142.386 195.675,142.719 194.5,142.5C 194.286,144.144 194.62,145.644 195.5,147C 194.09,147.368 193.09,148.201 192.5,149.5C 193.002,150.716 193.335,151.883 193.5,153C 191.169,155.2 191.169,157.2 193.5,159C 189.877,160.788 187.544,163.621 186.5,167.5C 184.088,168.818 181.754,168.651 179.5,167C 179.686,163.442 179.686,159.776 179.5,156C 181.461,152.926 183.127,149.259 184.5,145C 184.167,144.667 183.833,144.333 183.5,144C 185.396,141.265 186.062,138.432 185.5,135.5C 187.429,133.94 188.762,131.94 189.5,129.5C 188.833,128.5 188.167,127.5 187.5,126.5C 190.947,122.024 192.78,117.357 193,112.5C 191.829,113.893 190.329,114.727 188.5,115C 187.167,115.667 187.167,116.333 188.5,117C 186.182,119.046 183.682,120.88 181,122.5C 181.266,125.901 179.766,127.567 176.5,127.5C 173.307,134.762 168.974,141.262 163.5,147C 165.878,147.974 165.544,148.641 162.5,149C 162.833,149.333 163.167,149.667 163.5,150C 161.719,152.237 159.719,154.237 157.5,156C 157.663,158.211 157.663,160.378 157.5,162.5C 156.407,164.349 155.074,166.016 153.5,167.5C 154.025,168.192 154.692,168.692 155.5,169C 153.668,169.748 152.001,170.748 150.5,172C 151.167,172.667 151.833,173.333 152.5,174C 149.067,177.023 148.4,180.356 150.5,184C 148.738,186.887 147.072,189.887 145.5,193C 145.833,193.333 146.167,193.667 146.5,194C 144.006,196.423 144.006,198.756 146.5,201C 144.927,205.452 144.427,210.286 145,215.5C 145.423,218.133 146.59,220.299 148.5,222C 146.808,223.401 146.141,225.234 146.5,227.5C 147.552,227.351 148.552,227.517 149.5,228C 147.777,231.408 148.777,233.741 152.5,235C 151.167,235.667 151.167,236.333 152.5,237C 153.449,237.617 154.282,237.451 155,236.5C 156.794,238.434 158.794,240.101 161,241.5C 163.752,239.094 166.418,239.094 169,241.5C 170,238.833 171,238.833 172,241.5C 172.489,239.396 173.655,239.062 175.5,240.5C 177.575,238.17 180.242,237.003 183.5,237C 185.037,235.89 185.703,234.39 185.5,232.5C 188.468,232.374 190.468,230.874 191.5,228C 192.5,227.667 193.5,227.333 194.5,227C 194.5,225.667 194.5,224.333 194.5,223C 197.399,221.373 198.899,218.873 199,215.5C 199.333,215.833 199.667,216.167 200,216.5C 200.684,215.216 200.517,214.049 199.5,213C 202.539,211.423 203.872,208.923 203.5,205.5C 204.5,205.5 205.5,205.5 206.5,205.5C 207.977,201.543 209.643,197.71 211.5,194C 211.412,192.054 211.079,190.054 210.5,188C 213.024,183.429 215.024,178.595 216.5,173.5C 214.837,170.673 215.17,168.173 217.5,166C 216.978,165.439 216.645,164.772 216.5,164C 218.618,160.844 218.951,157.511 217.5,154C 219.87,151.498 221.203,148.498 221.5,145C 221.722,141.779 221.722,138.446 221.5,135C 223.354,133.71 223.687,132.21 222.5,130.5C 223.356,127.394 224.356,124.394 225.5,121.5C 224.041,118.695 224.374,116.195 226.5,114C 226.025,112.237 225.358,110.57 224.5,109C 226.004,107.509 226.837,105.676 227,103.5C 231.759,100.876 236.259,98.5427 240.5,96.5C 241.192,97.0253 241.692,97.6919 242,98.5C 244.37,97.8724 246.703,97.5391 249,97.5C 250.063,98.4378 251.23,99.4378 252.5,100.5C 256.105,98.6942 258.605,99.6942 260,103.5C 262.437,100.851 263.77,101.517 264,105.5C 264.708,104.619 265.542,103.953 266.5,103.5 Z"/></g>
<g><path style="opacity:0.000" fill="#ffffff" d="M 266.5,102.5 C 267.833,103.167 267.833,103.167 266.5,102.5 Z"/></g>
<g><path style="opacity:0.955" fill="#ffffff" d="M 302.5,222.5 C 303.802,223.807 305.135,223.807 306.5,222.5C 307.898,224.898 309.898,226.565 312.5,227.5C 312.974,229.793 312.308,231.959 310.5,234C 311.029,235.559 311.696,237.059 312.5,238.5C 311.092,239.243 309.759,240.077 308.5,241C 309.167,241.333 309.833,241.667 310.5,242C 308.676,243.989 306.676,245.823 304.5,247.5C 301.506,248.748 298.506,248.748 295.5,247.5C 294.195,244.947 293.195,242.28 292.5,239.5C 294.167,237.167 295.833,234.833 297.5,232.5C 296.674,231.549 296.508,230.549 297,229.5C 299.454,227.559 301.287,225.225 302.5,222.5 Z"/></g>
</svg>
