<svg width="189.2" height="87.801" viewBox="0 0 189.2 87.801" xmlns="http://www.w3.org/2000/svg"><g id="svgGroup" stroke-linecap="round" fill-rule="evenodd" font-size="9pt" stroke="#ffffff" stroke-width="0.25mm" fill="#ffffff" style="stroke:#ffffff;stroke-width:0.25mm;fill:#ffffff"><path d="M 17.629 87.252 A 41.375 41.375 0 0 0 24.6 87.8 A 52.972 52.972 0 0 0 29.083 87.602 Q 36.683 86.956 46.1 84.2 A 182.357 182.357 0 0 0 49.19 83.288 Q 58.447 80.466 65.45 77.2 Q 73.6 73.4 79.65 69.15 A 97.293 97.293 0 0 0 83.984 65.927 A 78.911 78.911 0 0 0 90.3 60.4 A 1.99 1.99 0 0 0 90.426 60.263 Q 90.7 59.931 90.7 59.6 A 0.589 0.589 0 0 0 90.683 59.452 Q 90.636 59.271 90.459 59.22 A 0.576 0.576 0 0 0 90.3 59.2 A 1.048 1.048 0 0 0 89.969 59.255 Q 89.787 59.315 89.605 59.442 A 2.254 2.254 0 0 0 89.3 59.7 Q 87.032 61.35 83.605 63.213 A 100.399 100.399 0 0 1 80.25 64.95 Q 74.5 67.8 67.25 70.55 A 185.636 185.636 0 0 1 66.342 70.892 A 202.772 202.772 0 0 1 52.1 75.6 Q 44.2 77.9 36.5 79.3 A 92.749 92.749 0 0 1 29.973 80.257 A 71.756 71.756 0 0 1 22.2 80.7 Q 16.857 80.7 12.8 79.607 A 20.423 20.423 0 0 1 7.85 77.6 A 10.172 10.172 0 0 1 2.96 70.967 A 16.798 16.798 0 0 1 2.5 66.9 A 27.144 27.144 0 0 1 3.006 61.75 A 33.788 33.788 0 0 1 4.8 55.7 A 47.417 47.417 0 0 1 6.779 51.371 A 55.978 55.978 0 0 1 11.2 44.25 Q 15.3 38.6 20.7 33.6 Q 26.1 28.6 32.25 24.75 A 66.99 66.99 0 0 1 33.117 24.217 A 60.164 60.164 0 0 1 44.85 18.7 A 44.405 44.405 0 0 1 47.66 17.843 A 37.804 37.804 0 0 1 57.5 16.5 A 12.757 12.757 0 0 1 58.003 16.509 Q 58.842 16.543 59.421 16.691 A 2.922 2.922 0 0 1 60 16.9 Q 58.5 18.6 56.75 20.75 A 285.536 285.536 0 0 0 56.315 21.286 A 259.632 259.632 0 0 0 53.4 24.95 A 311.205 311.205 0 0 0 53.243 25.152 Q 51.751 27.067 50.8 28.35 L 49.8 29.7 Q 49.8 29.9 50 29.9 A 0.508 0.508 0 0 0 50.018 29.9 Q 50.515 29.883 52.032 28.91 A 33.018 33.018 0 0 0 52.8 28.4 Q 53.7 27.8 56.15 25.95 A 73.12 73.12 0 0 0 58.342 24.226 A 93.397 93.397 0 0 0 61.3 21.7 A 60.003 60.003 0 0 0 63.529 19.619 A 46.513 46.513 0 0 0 66 17 Q 68 14.7 68 13.3 A 1.206 1.206 0 0 0 67.614 12.381 A 1.729 1.729 0 0 0 67.2 12.1 Q 68.2 11.3 69.25 9.15 A 64.859 64.859 0 0 0 70.112 7.317 A 51.202 51.202 0 0 0 71.05 5.1 A 113.979 113.979 0 0 0 71.055 5.089 Q 71.666 3.54 71.776 3.127 A 0.588 0.588 0 0 0 71.8 3 A 5.519 5.519 0 0 0 71.788 2.624 Q 71.71 1.489 71.15 0.8 A 4.5 4.5 0 0 0 70.917 0.533 Q 70.409 0 70 0 L 69.45 1.5 A 65.924 65.924 0 0 1 69.077 2.491 Q 68.876 3.014 68.646 3.59 A 125.918 125.918 0 0 1 68.05 5.05 Q 67.2 7.1 66.4 8.9 A 35.239 35.239 0 0 1 66.346 9.022 Q 65.781 10.281 65.369 10.925 A 3.722 3.722 0 0 1 65.1 11.3 A 5.192 5.192 0 0 0 64.787 11.17 Q 64.053 10.893 62.925 10.685 A 23.735 23.735 0 0 0 61.75 10.5 Q 59.5 10.2 57.2 10.2 L 55.8 10.2 A 9.044 9.044 0 0 0 55.289 10.214 A 7.317 7.317 0 0 0 54.5 10.3 Q 45.1 11.4 36.8 15.3 Q 28.5 19.2 21.75 25.05 Q 15 30.9 10.15 37.9 Q 5.3 44.9 2.65 52.25 A 48.364 48.364 0 0 0 1.142 57.238 A 38.755 38.755 0 0 0 0 66.4 A 27.336 27.336 0 0 0 0.495 71.729 A 18.481 18.481 0 0 0 6.25 82.15 A 18.815 18.815 0 0 0 10.938 85.229 Q 13.898 86.613 17.629 87.252 Z M 105 4 L 105 4.2 A 1.942 1.942 0 0 1 106.425 3.413 A 2.778 2.778 0 0 1 106.7 3.4 A 2.694 2.694 0 0 1 108.838 4.416 A 4.266 4.266 0 0 1 109.25 5 Q 110.2 6.6 110.65 8.65 Q 111.09 10.655 111.1 11.942 A 7.659 7.659 0 0 1 111.1 12 A 22.507 22.507 0 0 1 110.725 15.978 Q 110.325 18.201 109.5 20.65 Q 107.9 25.4 105.4 30.25 Q 102.9 35.1 100.1 39.55 A 215.338 215.338 0 0 1 97.563 43.491 Q 96.175 45.594 94.9 47.4 Q 94.5 51.4 94.2 55.5 Q 93.9 59.6 93.9 63.7 Q 93.9 65.9 94.05 67.9 A 111.505 111.505 0 0 0 94.292 70.672 A 95.563 95.563 0 0 0 94.4 71.7 A 88.695 88.695 0 0 1 94.957 68.618 Q 95.277 67.003 95.683 65.214 A 149.364 149.364 0 0 1 95.8 64.7 Q 96.7 60.8 97.7 56.95 Q 98.7 53.1 99.65 50 Q 100.6 46.9 101.2 45.5 A 9.644 9.644 0 0 1 101.984 43.986 Q 102.78 42.748 103.85 42.1 A 7.908 7.908 0 0 1 105.117 41.471 Q 105.889 41.175 106.627 41.115 A 4.598 4.598 0 0 1 107 41.1 Q 107.6 41.1 108 42.8 Q 108.274 43.962 108.477 45.545 A 49.138 49.138 0 0 1 108.65 47.1 Q 108.9 49.7 109.1 52.45 A 286.125 286.125 0 0 1 109.236 54.407 Q 109.338 55.95 109.4 57.2 Q 109.6 60.8 110.3 62.3 Q 111 63.8 111.8 64.1 Q 112.564 64.386 113.054 64.49 A 3.962 3.962 0 0 0 113.1 64.5 Q 113.804 64.5 114.662 63.49 A 8.517 8.517 0 0 0 115.15 62.85 Q 116.299 61.202 117.448 59.004 A 31.708 31.708 0 0 0 117.45 59 A 86.934 86.934 0 0 1 118.428 57.18 Q 119.038 56.078 119.6 55.15 A 11.343 11.343 0 0 1 119.961 54.589 Q 120.542 53.747 120.966 53.556 A 0.572 0.572 0 0 1 121.2 53.5 A 0.249 0.249 0 0 1 121.438 53.648 Q 121.5 53.772 121.5 54 Q 121.5 54.393 121.21 55.27 A 14.025 14.025 0 0 1 121.2 55.3 Q 118 62.9 115.6 66.7 A 13.709 13.709 0 0 1 114.401 68.34 Q 112.788 70.208 111.047 70.461 A 3.806 3.806 0 0 1 110.5 70.5 A 3.971 3.971 0 0 1 109.13 70.275 Q 108.085 69.894 107.45 68.863 A 4.483 4.483 0 0 1 107.3 68.6 A 18.056 18.056 0 0 1 105.321 63.436 A 20.505 20.505 0 0 1 105.2 62.85 Q 104.6 59.7 104.25 56.4 A 40.254 40.254 0 0 0 103.515 51.863 A 34.81 34.81 0 0 0 103.1 50.2 A 1.405 1.405 0 0 0 103.045 49.974 Q 103.006 49.861 102.95 49.783 A 0.407 0.407 0 0 0 102.6 49.6 Q 102.354 49.6 102.142 50.004 A 2.429 2.429 0 0 0 102.05 50.2 Q 101.813 50.77 101.44 51.611 A 124.189 124.189 0 0 1 101.4 51.7 Q 101.1 52.4 100.25 55.35 Q 99.666 57.378 99.011 59.973 A 235.272 235.272 0 0 0 98.4 62.45 A 103.644 103.644 0 0 0 96.973 69.458 A 116.108 116.108 0 0 0 96.7 71.15 A 62.351 62.351 0 0 0 96.139 75.998 A 48.585 48.585 0 0 0 96 79.6 Q 96 79.8 95.8 79.8 Q 94.28 79.8 93.279 78.12 A 6.515 6.515 0 0 1 93.05 77.7 A 13.473 13.473 0 0 1 92.288 75.804 Q 91.966 74.804 91.727 73.629 A 27.261 27.261 0 0 1 91.5 72.35 A 65.894 65.894 0 0 1 90.993 68.092 A 80.382 80.382 0 0 1 90.8 65.35 Q 90.6 61.6 90.6 58.3 A 176.708 176.708 0 0 1 91.022 46.269 A 193.736 193.736 0 0 1 91.15 44.5 A 243.167 243.167 0 0 1 92.489 31.583 A 222.418 222.418 0 0 1 92.6 30.75 Q 93.5 24.1 94.5 18.6 Q 95.188 14.819 95.805 11.865 A 150.734 150.734 0 0 1 96.35 9.35 A 105.799 105.799 0 0 1 96.706 7.831 Q 97.204 5.776 97.556 4.778 A 7.43 7.43 0 0 1 97.7 4.4 A 138.893 138.893 0 0 0 98.19 3.195 Q 98.38 2.723 98.545 2.299 A 68.276 68.276 0 0 0 98.85 1.5 Q 99.113 0.799 99.564 0.508 A 1.326 1.326 0 0 1 100.3 0.3 Q 101.839 0.3 103.332 1.503 A 7.785 7.785 0 0 1 103.45 1.6 Q 105 2.9 105 4 Z M 138.1 37.3 L 138.1 37.6 A 17.933 17.933 0 0 0 137.433 39.645 Q 137.143 40.737 136.916 42.026 A 41.619 41.619 0 0 0 136.6 44.15 Q 136.1 48.2 136.1 52.3 A 57.61 57.61 0 0 0 136.257 56.624 A 47.709 47.709 0 0 0 136.5 59.05 Q 136.777 61.231 137.27 62.813 A 11.613 11.613 0 0 0 137.75 64.1 Q 138.433 65.625 139.341 65.926 A 1.452 1.452 0 0 0 139.8 66 Q 141 66 142.1 64.7 Q 143.2 63.4 144.05 61.9 Q 144.9 60.4 145.2 59.7 A 302.903 302.903 0 0 0 145.932 58.334 Q 147.34 55.687 147.769 54.722 A 9.495 9.495 0 0 0 147.8 54.65 A 3.285 3.285 0 0 1 148.051 54.174 Q 148.488 53.5 149.1 53.5 A 0.315 0.315 0 0 1 149.239 53.528 Q 149.372 53.592 149.395 53.803 A 0.875 0.875 0 0 1 149.4 53.9 Q 149.4 54.061 149.271 54.609 A 22.156 22.156 0 0 1 149.2 54.9 A 63.984 63.984 0 0 1 147.486 59.123 A 76.568 76.568 0 0 1 146.25 61.75 A 26.067 26.067 0 0 1 143.976 65.55 A 21.388 21.388 0 0 1 142.1 67.8 A 8.991 8.991 0 0 1 140.175 69.348 A 6.752 6.752 0 0 1 136.7 70.3 A 4.956 4.956 0 0 1 134.308 69.741 Q 133.207 69.146 132.471 67.918 A 8.218 8.218 0 0 1 131.7 66.15 A 25.569 25.569 0 0 1 130.859 62.456 Q 130.558 60.531 130.455 58.309 A 51.856 51.856 0 0 1 130.4 55.9 Q 130.4 52.6 130.6 49.45 Q 130.8 46.3 130.9 44.2 A 17.772 17.772 0 0 1 128.055 43.612 A 16.356 16.356 0 0 1 127.85 43.55 A 15.809 15.809 0 0 1 127.008 43.264 Q 126.15 42.944 125.6 42.6 Q 125.5 43.3 124.8 45.45 A 340.359 340.359 0 0 1 124.14 47.456 Q 123.685 48.825 123.15 50.4 Q 122.2 53.2 121.1 55.9 A 53.266 53.266 0 0 1 120.289 57.791 Q 119.885 58.684 119.495 59.439 A 24.674 24.674 0 0 1 119 60.35 A 9.069 9.069 0 0 1 118.602 60.989 Q 117.916 61.987 117.331 62.089 A 0.764 0.764 0 0 1 117.2 62.1 A 0.366 0.366 0 0 1 116.991 62.042 Q 116.8 61.914 116.8 61.5 Q 116.8 60.832 117.289 59.745 A 11.941 11.941 0 0 1 117.5 59.3 Q 119.5 55.2 121.1 50.9 Q 122.7 46.6 124 42 A 2.569 2.569 0 0 1 122.58 40.617 A 3.373 3.373 0 0 1 122.55 40.55 A 5.555 5.555 0 0 1 122.144 38.988 A 6.891 6.891 0 0 1 122.1 38.2 A 20.277 20.277 0 0 1 122.236 35.78 Q 122.38 34.589 122.675 33.585 A 9.662 9.662 0 0 1 123.15 32.3 A 14.922 14.922 0 0 1 123.902 30.855 Q 124.321 30.152 124.775 29.605 A 6.816 6.816 0 0 1 125.5 28.85 A 10.238 10.238 0 0 1 126.04 28.402 Q 126.907 27.736 127.444 27.702 A 0.898 0.898 0 0 1 127.5 27.7 Q 128.641 27.7 128.698 29.508 A 6.189 6.189 0 0 1 128.7 29.7 A 5.993 5.993 0 0 1 128.663 30.325 Q 128.595 30.968 128.402 31.873 A 31.066 31.066 0 0 1 128.2 32.75 Q 127.7 34.8 127 36.95 Q 126.374 38.873 125.908 40.116 A 36.071 36.071 0 0 1 125.8 40.4 L 126.4 40.8 Q 127 41.2 127.7 41.2 Q 128.444 41.2 129.16 40.509 A 4.877 4.877 0 0 0 129.65 39.95 A 17.665 17.665 0 0 1 130.846 38.544 A 22.431 22.431 0 0 1 131.95 37.45 A 4.641 4.641 0 0 1 134.548 36.256 A 6.334 6.334 0 0 1 135.4 36.2 Q 136.5 36.2 137.3 36.45 A 1.857 1.857 0 0 1 137.631 36.586 Q 137.804 36.68 137.913 36.801 A 0.72 0.72 0 0 1 138.1 37.3 Z M 167.3 70.8 Q 165.8 70.8 163.95 70.35 A 15.187 15.187 0 0 1 162.326 69.862 Q 161.468 69.548 160.75 69.15 A 6.007 6.007 0 0 1 160.233 68.83 Q 159.737 68.484 159.536 68.149 A 0.871 0.871 0 0 1 159.4 67.7 Q 159.4 66.1 162.4 66.1 Q 164.1 66.1 166.4 65.4 Q 168.7 64.7 170.65 63.85 Q 172.333 63.117 173.01 62.718 A 4.009 4.009 0 0 0 173.2 62.6 A 3.196 3.196 0 0 0 172.942 62.271 Q 172.437 61.697 171.3 60.75 Q 170.011 59.676 168.501 58.195 A 69.718 69.718 0 0 1 168 57.7 Q 166.2 55.9 164.85 53.65 Q 163.5 51.4 163.5 48.7 Q 163.5 45.9 165 43.45 A 20.591 20.591 0 0 1 168.472 39.208 A 22.941 22.941 0 0 1 168.75 38.95 A 38.336 38.336 0 0 1 172.473 35.949 A 34.21 34.21 0 0 1 173.35 35.35 Q 175.7 33.8 177.4 32.8 Q 178.1 32.4 178.9 32.4 A 4.725 4.725 0 0 1 181.262 33.045 A 6.198 6.198 0 0 1 181.95 33.5 A 6.484 6.484 0 0 1 182.568 34.027 Q 183.4 34.842 183.4 35.6 Q 183.4 35.699 183.206 36.089 A 8.576 8.576 0 0 1 183.2 36.1 A 7.212 7.212 0 0 0 182.686 36.76 Q 182.185 37.477 181.633 38.542 A 26.977 26.977 0 0 0 181.45 38.9 Q 180.5 40.8 179.8 42.85 A 14.435 14.435 0 0 0 179.322 44.577 Q 179.1 45.644 179.1 46.6 A 6.81 6.81 0 0 1 179.075 47.221 Q 178.981 48.231 178.553 48.443 A 0.56 0.56 0 0 1 178.3 48.5 A 0.404 0.404 0 0 1 177.999 48.358 Q 177.816 48.163 177.7 47.7 A 6.945 6.945 0 0 1 177.541 46.855 A 5.426 5.426 0 0 1 177.5 46.2 A 14.11 14.11 0 0 1 177.706 43.855 A 18.514 18.514 0 0 1 178.15 41.9 Q 178.749 39.782 178.966 38.766 A 13.023 13.023 0 0 0 179 38.6 A 2.628 2.628 0 0 0 178.213 38.737 Q 177.471 38.972 176.507 39.611 A 15.152 15.152 0 0 0 175.75 40.15 A 29.007 29.007 0 0 0 173.493 42.055 A 38.041 38.041 0 0 0 171.6 43.95 A 35.094 35.094 0 0 0 169.336 46.622 A 28.462 28.462 0 0 0 168.05 48.45 Q 166.6 50.7 166.6 52.1 Q 166.6 54 167.9 55.55 A 13.999 13.999 0 0 0 169.779 57.39 A 17.579 17.579 0 0 0 171.15 58.4 Q 173.1 59.7 174.8 61.2 Q 175.8 60.8 177.9 59.75 Q 180 58.7 182.35 57.55 Q 184.7 56.4 186.55 55.6 Q 188.4 54.8 189 54.8 A 0.601 0.601 0 0 1 189.067 54.803 Q 189.134 54.811 189.167 54.835 A 0.076 0.076 0 0 1 189.2 54.9 A 0.931 0.931 0 0 1 189.082 55.325 Q 188.808 55.853 187.902 56.549 A 11.293 11.293 0 0 1 187.7 56.7 A 24.948 24.948 0 0 1 186.477 57.539 Q 185.789 57.983 184.993 58.443 A 46.193 46.193 0 0 1 184 59 Q 181.8 60.2 179.65 61.3 Q 177.5 62.4 176.3 63 A 5.669 5.669 0 0 1 176.6 64.772 A 5.403 5.403 0 0 1 176.6 64.8 A 4.94 4.94 0 0 1 176.342 66.429 A 4.2 4.2 0 0 1 175.15 68.2 A 8.717 8.717 0 0 1 172.886 69.653 A 11.06 11.06 0 0 1 171.55 70.15 A 14.862 14.862 0 0 1 167.974 70.783 A 13.662 13.662 0 0 1 167.3 70.8 Z M 146.8 71.9 A 2.161 2.161 0 0 0 147.543 72.662 Q 148.253 73.1 149.4 73.1 Q 152 73.1 154.25 71.15 A 20.674 20.674 0 0 0 155.882 69.568 A 24.67 24.67 0 0 0 158.35 66.4 A 50.198 50.198 0 0 0 159.268 64.96 A 43.234 43.234 0 0 0 161.5 60.85 A 111.599 111.599 0 0 0 162.071 59.624 Q 162.941 57.725 163.4 56.5 A 50.124 50.124 0 0 1 163.42 56.431 Q 163.608 55.778 163.75 55.35 A 3.157 3.157 0 0 0 163.848 54.992 A 2.425 2.425 0 0 0 163.9 54.5 Q 163.9 54.086 163.71 53.958 A 0.366 0.366 0 0 0 163.5 53.9 A 0.71 0.71 0 0 0 163.13 54.013 Q 162.406 54.453 161.65 56.6 Q 160.7 59.3 157.3 64.4 Q 157.071 64.783 156.401 65.576 A 38.834 38.834 0 0 1 155.95 66.1 Q 154.9 67.3 153.75 68.3 A 7.571 7.571 0 0 1 153.647 68.389 Q 152.56 69.3 151.7 69.3 A 0.828 0.828 0 0 1 150.965 68.868 Q 150.714 68.465 150.636 67.685 A 7.907 7.907 0 0 1 150.6 66.9 A 14.398 14.398 0 0 1 150.65 65.731 Q 150.732 64.72 150.952 63.588 A 28.556 28.556 0 0 1 151.5 61.3 A 67.812 67.812 0 0 1 151.729 60.505 A 61.551 61.551 0 0 1 153.55 55.2 Q 154.7 52.3 155.4 51 Q 155.1 50.475 154.407 49.444 A 89.496 89.496 0 0 0 153.9 48.7 A 5.865 5.865 0 0 0 153.627 48.333 Q 153.285 47.911 152.917 47.633 A 2.475 2.475 0 0 0 151.4 47.1 A 1.389 1.389 0 0 0 151.008 47.156 Q 149.876 47.488 149.034 49.774 A 16.527 16.527 0 0 0 148.6 51.15 A 40.199 40.199 0 0 0 148.5 51.526 Q 147.459 55.51 146.6 62 A 52.225 52.225 0 0 0 146.52 62.526 Q 146.405 63.304 146.326 64.011 A 31.133 31.133 0 0 0 146.2 65.4 Q 146.1 66.9 146.1 68.2 A 16.576 16.576 0 0 0 146.107 68.661 Q 146.145 70.033 146.416 70.973 A 4.095 4.095 0 0 0 146.8 71.9 Z M 95.4 43.8 Q 98.4 38.9 101.35 33.35 Q 104.3 27.8 106.3 22.4 Q 108.3 17 108.3 12.6 A 15.191 15.191 0 0 0 108.136 10.315 A 11.783 11.783 0 0 0 107.7 8.45 A 6.617 6.617 0 0 0 105.603 5.384 A 7.959 7.959 0 0 0 105.5 5.3 Q 105.4 5.1 105.2 5 L 104.8 4.8 Q 102.1 12.8 99.5 22.85 A 182.45 182.45 0 0 0 95.592 42.441 A 199.652 199.652 0 0 0 95.4 43.8 Z M 154.011 42.797 A 3.207 3.207 0 0 0 154.8 42.9 Q 155.569 42.9 156.051 42.469 A 1.932 1.932 0 0 0 156.5 41.85 A 19.028 19.028 0 0 0 156.641 41.548 Q 157.071 40.603 157.5 39.4 Q 158 38 159.1 37.2 Q 159.744 36.771 159.927 36.444 A 0.503 0.503 0 0 0 160 36.2 A 0.396 0.396 0 0 0 159.875 35.896 Q 159.727 35.759 159.406 35.718 A 2.42 2.42 0 0 0 159.1 35.7 A 5.697 5.697 0 0 0 157.217 36.034 A 7.992 7.992 0 0 0 155.8 36.7 A 11.88 11.88 0 0 0 154.797 37.359 A 9.699 9.699 0 0 0 153 39.05 A 9.404 9.404 0 0 0 152.718 39.414 Q 151.9 40.524 151.9 41.3 A 1.225 1.225 0 0 0 151.901 41.333 Q 151.908 41.583 152.017 41.781 A 1.004 1.004 0 0 0 152.3 42.1 Q 152.9 42.4 153.55 42.65 A 4.067 4.067 0 0 0 154.011 42.797 Z" vector-effect="non-scaling-stroke"/></g></svg>